<mxfile host="app.diagrams.net" modified="2024-01-30T23:10:16.996Z" agent="Mozilla/5.0 (Windows NT 10.0; Win64; x64) AppleWebKit/537.36 (KHTML, like Gecko) Chrome/121.0.0.0 Safari/537.36 Edg/121.0.0.0" etag="rXANSp6rlTnkq7EJcxUH" version="23.0.2" type="github">
  <diagram name="Page-1" id="rfkZgm87XXH4F_-BFPrv">
    <mxGraphModel dx="2050" dy="1914" grid="1" gridSize="10" guides="1" tooltips="1" connect="1" arrows="1" fold="1" page="1" pageScale="1" pageWidth="827" pageHeight="1169" math="0" shadow="0">
      <root>
        <mxCell id="0" />
        <mxCell id="1" parent="0" />
        <mxCell id="srSLmdjnSRIWFeMidiFF-37" style="edgeStyle=orthogonalEdgeStyle;rounded=0;orthogonalLoop=1;jettySize=auto;html=1;entryX=0.5;entryY=0;entryDx=0;entryDy=0;" edge="1" parent="1" source="srSLmdjnSRIWFeMidiFF-7" target="srSLmdjnSRIWFeMidiFF-14">
          <mxGeometry relative="1" as="geometry" />
        </mxCell>
        <mxCell id="srSLmdjnSRIWFeMidiFF-51" value="0..n" style="edgeLabel;html=1;align=center;verticalAlign=middle;resizable=0;points=[];" vertex="1" connectable="0" parent="srSLmdjnSRIWFeMidiFF-37">
          <mxGeometry x="0.8035" y="1" relative="1" as="geometry">
            <mxPoint as="offset" />
          </mxGeometry>
        </mxCell>
        <mxCell id="srSLmdjnSRIWFeMidiFF-52" value="1..n" style="edgeLabel;html=1;align=center;verticalAlign=middle;resizable=0;points=[];" vertex="1" connectable="0" parent="srSLmdjnSRIWFeMidiFF-37">
          <mxGeometry x="-0.8454" relative="1" as="geometry">
            <mxPoint as="offset" />
          </mxGeometry>
        </mxCell>
        <mxCell id="srSLmdjnSRIWFeMidiFF-38" style="edgeStyle=orthogonalEdgeStyle;rounded=0;orthogonalLoop=1;jettySize=auto;html=1;" edge="1" parent="1" source="srSLmdjnSRIWFeMidiFF-7" target="srSLmdjnSRIWFeMidiFF-21">
          <mxGeometry relative="1" as="geometry" />
        </mxCell>
        <mxCell id="srSLmdjnSRIWFeMidiFF-50" style="edgeStyle=orthogonalEdgeStyle;rounded=0;orthogonalLoop=1;jettySize=auto;html=1;entryX=1;entryY=0.5;entryDx=0;entryDy=0;" edge="1" parent="1" source="srSLmdjnSRIWFeMidiFF-7" target="srSLmdjnSRIWFeMidiFF-49">
          <mxGeometry relative="1" as="geometry" />
        </mxCell>
        <mxCell id="srSLmdjnSRIWFeMidiFF-64" value="0..1" style="edgeLabel;html=1;align=center;verticalAlign=middle;resizable=0;points=[];" vertex="1" connectable="0" parent="srSLmdjnSRIWFeMidiFF-50">
          <mxGeometry x="0.8495" y="1" relative="1" as="geometry">
            <mxPoint as="offset" />
          </mxGeometry>
        </mxCell>
        <mxCell id="srSLmdjnSRIWFeMidiFF-7" value="User" style="swimlane;fontStyle=0;childLayout=stackLayout;horizontal=1;startSize=26;horizontalStack=0;resizeParent=1;resizeParentMax=0;resizeLast=0;collapsible=1;marginBottom=0;align=center;fontSize=14;rounded=1;" vertex="1" parent="1">
          <mxGeometry x="80" y="60" width="160" height="206" as="geometry" />
        </mxCell>
        <mxCell id="srSLmdjnSRIWFeMidiFF-13" value="Role" style="text;strokeColor=none;fillColor=none;spacingLeft=4;spacingRight=4;overflow=hidden;rotatable=0;points=[[0,0.5],[1,0.5]];portConstraint=eastwest;fontSize=12;whiteSpace=wrap;html=1;" vertex="1" parent="srSLmdjnSRIWFeMidiFF-7">
          <mxGeometry y="26" width="160" height="30" as="geometry" />
        </mxCell>
        <mxCell id="srSLmdjnSRIWFeMidiFF-8" value="LastName" style="text;strokeColor=none;fillColor=none;spacingLeft=4;spacingRight=4;overflow=hidden;rotatable=0;points=[[0,0.5],[1,0.5]];portConstraint=eastwest;fontSize=12;whiteSpace=wrap;html=1;" vertex="1" parent="srSLmdjnSRIWFeMidiFF-7">
          <mxGeometry y="56" width="160" height="30" as="geometry" />
        </mxCell>
        <mxCell id="srSLmdjnSRIWFeMidiFF-9" value="FirstName" style="text;strokeColor=none;fillColor=none;spacingLeft=4;spacingRight=4;overflow=hidden;rotatable=0;points=[[0,0.5],[1,0.5]];portConstraint=eastwest;fontSize=12;whiteSpace=wrap;html=1;" vertex="1" parent="srSLmdjnSRIWFeMidiFF-7">
          <mxGeometry y="86" width="160" height="30" as="geometry" />
        </mxCell>
        <mxCell id="srSLmdjnSRIWFeMidiFF-10" value="birthday" style="text;strokeColor=none;fillColor=none;spacingLeft=4;spacingRight=4;overflow=hidden;rotatable=0;points=[[0,0.5],[1,0.5]];portConstraint=eastwest;fontSize=12;whiteSpace=wrap;html=1;" vertex="1" parent="srSLmdjnSRIWFeMidiFF-7">
          <mxGeometry y="116" width="160" height="30" as="geometry" />
        </mxCell>
        <mxCell id="srSLmdjnSRIWFeMidiFF-11" value="Email" style="text;strokeColor=none;fillColor=none;spacingLeft=4;spacingRight=4;overflow=hidden;rotatable=0;points=[[0,0.5],[1,0.5]];portConstraint=eastwest;fontSize=12;whiteSpace=wrap;html=1;" vertex="1" parent="srSLmdjnSRIWFeMidiFF-7">
          <mxGeometry y="146" width="160" height="30" as="geometry" />
        </mxCell>
        <mxCell id="srSLmdjnSRIWFeMidiFF-12" value="Password" style="text;strokeColor=none;fillColor=none;spacingLeft=4;spacingRight=4;overflow=hidden;rotatable=0;points=[[0,0.5],[1,0.5]];portConstraint=eastwest;fontSize=12;whiteSpace=wrap;html=1;" vertex="1" parent="srSLmdjnSRIWFeMidiFF-7">
          <mxGeometry y="176" width="160" height="30" as="geometry" />
        </mxCell>
        <mxCell id="srSLmdjnSRIWFeMidiFF-14" value="Address" style="swimlane;fontStyle=0;childLayout=stackLayout;horizontal=1;startSize=26;horizontalStack=0;resizeParent=1;resizeParentMax=0;resizeLast=0;collapsible=1;marginBottom=0;align=center;fontSize=14;rounded=1;" vertex="1" parent="1">
          <mxGeometry x="-140" y="230" width="160" height="176" as="geometry" />
        </mxCell>
        <mxCell id="srSLmdjnSRIWFeMidiFF-15" value="Road&#39;s number" style="text;strokeColor=none;fillColor=none;spacingLeft=4;spacingRight=4;overflow=hidden;rotatable=0;points=[[0,0.5],[1,0.5]];portConstraint=eastwest;fontSize=12;whiteSpace=wrap;html=1;" vertex="1" parent="srSLmdjnSRIWFeMidiFF-14">
          <mxGeometry y="26" width="160" height="30" as="geometry" />
        </mxCell>
        <mxCell id="srSLmdjnSRIWFeMidiFF-16" value="Road&#39;s name" style="text;strokeColor=none;fillColor=none;spacingLeft=4;spacingRight=4;overflow=hidden;rotatable=0;points=[[0,0.5],[1,0.5]];portConstraint=eastwest;fontSize=12;whiteSpace=wrap;html=1;" vertex="1" parent="srSLmdjnSRIWFeMidiFF-14">
          <mxGeometry y="56" width="160" height="30" as="geometry" />
        </mxCell>
        <mxCell id="srSLmdjnSRIWFeMidiFF-17" value="City" style="text;strokeColor=none;fillColor=none;spacingLeft=4;spacingRight=4;overflow=hidden;rotatable=0;points=[[0,0.5],[1,0.5]];portConstraint=eastwest;fontSize=12;whiteSpace=wrap;html=1;" vertex="1" parent="srSLmdjnSRIWFeMidiFF-14">
          <mxGeometry y="86" width="160" height="30" as="geometry" />
        </mxCell>
        <mxCell id="srSLmdjnSRIWFeMidiFF-19" value="Postal code" style="text;strokeColor=none;fillColor=none;spacingLeft=4;spacingRight=4;overflow=hidden;rotatable=0;points=[[0,0.5],[1,0.5]];portConstraint=eastwest;fontSize=12;whiteSpace=wrap;html=1;" vertex="1" parent="srSLmdjnSRIWFeMidiFF-14">
          <mxGeometry y="116" width="160" height="30" as="geometry" />
        </mxCell>
        <mxCell id="srSLmdjnSRIWFeMidiFF-20" value="Country" style="text;strokeColor=none;fillColor=none;spacingLeft=4;spacingRight=4;overflow=hidden;rotatable=0;points=[[0,0.5],[1,0.5]];portConstraint=eastwest;fontSize=12;whiteSpace=wrap;html=1;" vertex="1" parent="srSLmdjnSRIWFeMidiFF-14">
          <mxGeometry y="146" width="160" height="30" as="geometry" />
        </mxCell>
        <mxCell id="srSLmdjnSRIWFeMidiFF-21" value="Media" style="swimlane;fontStyle=0;childLayout=stackLayout;horizontal=1;startSize=26;horizontalStack=0;resizeParent=1;resizeParentMax=0;resizeLast=0;collapsible=1;marginBottom=0;align=center;fontSize=14;rounded=1;" vertex="1" parent="1">
          <mxGeometry x="290" y="290" width="160" height="86" as="geometry" />
        </mxCell>
        <mxCell id="srSLmdjnSRIWFeMidiFF-22" value="Name" style="text;strokeColor=none;fillColor=none;spacingLeft=4;spacingRight=4;overflow=hidden;rotatable=0;points=[[0,0.5],[1,0.5]];portConstraint=eastwest;fontSize=12;whiteSpace=wrap;html=1;" vertex="1" parent="srSLmdjnSRIWFeMidiFF-21">
          <mxGeometry y="26" width="160" height="30" as="geometry" />
        </mxCell>
        <mxCell id="srSLmdjnSRIWFeMidiFF-23" value="Category" style="text;strokeColor=none;fillColor=none;spacingLeft=4;spacingRight=4;overflow=hidden;rotatable=0;points=[[0,0.5],[1,0.5]];portConstraint=eastwest;fontSize=12;whiteSpace=wrap;html=1;" vertex="1" parent="srSLmdjnSRIWFeMidiFF-21">
          <mxGeometry y="56" width="160" height="30" as="geometry" />
        </mxCell>
        <mxCell id="srSLmdjnSRIWFeMidiFF-27" value="Comment" style="swimlane;fontStyle=0;childLayout=stackLayout;horizontal=1;startSize=26;horizontalStack=0;resizeParent=1;resizeParentMax=0;resizeLast=0;collapsible=1;marginBottom=0;align=center;fontSize=14;rounded=1;" vertex="1" parent="1">
          <mxGeometry x="330" y="-140" width="160" height="86" as="geometry" />
        </mxCell>
        <mxCell id="srSLmdjnSRIWFeMidiFF-29" value="Rate" style="text;strokeColor=none;fillColor=none;spacingLeft=4;spacingRight=4;overflow=hidden;rotatable=0;points=[[0,0.5],[1,0.5]];portConstraint=eastwest;fontSize=12;whiteSpace=wrap;html=1;" vertex="1" parent="srSLmdjnSRIWFeMidiFF-27">
          <mxGeometry y="26" width="160" height="30" as="geometry" />
        </mxCell>
        <mxCell id="srSLmdjnSRIWFeMidiFF-28" value="Message" style="text;strokeColor=none;fillColor=none;spacingLeft=4;spacingRight=4;overflow=hidden;rotatable=0;points=[[0,0.5],[1,0.5]];portConstraint=eastwest;fontSize=12;whiteSpace=wrap;html=1;" vertex="1" parent="srSLmdjnSRIWFeMidiFF-27">
          <mxGeometry y="56" width="160" height="30" as="geometry" />
        </mxCell>
        <mxCell id="srSLmdjnSRIWFeMidiFF-39" style="edgeStyle=orthogonalEdgeStyle;rounded=0;orthogonalLoop=1;jettySize=auto;html=1;entryX=0.5;entryY=0;entryDx=0;entryDy=0;" edge="1" parent="1" source="srSLmdjnSRIWFeMidiFF-30" target="srSLmdjnSRIWFeMidiFF-21">
          <mxGeometry relative="1" as="geometry" />
        </mxCell>
        <mxCell id="srSLmdjnSRIWFeMidiFF-53" value="0..n" style="edgeLabel;html=1;align=center;verticalAlign=middle;resizable=0;points=[];" vertex="1" connectable="0" parent="srSLmdjnSRIWFeMidiFF-39">
          <mxGeometry x="0.8354" y="1" relative="1" as="geometry">
            <mxPoint as="offset" />
          </mxGeometry>
        </mxCell>
        <mxCell id="srSLmdjnSRIWFeMidiFF-30" value="Object" style="swimlane;fontStyle=0;childLayout=stackLayout;horizontal=1;startSize=26;horizontalStack=0;resizeParent=1;resizeParentMax=0;resizeLast=0;collapsible=1;marginBottom=0;align=center;fontSize=14;rounded=1;" vertex="1" parent="1">
          <mxGeometry x="490" y="90" width="160" height="146" as="geometry" />
        </mxCell>
        <mxCell id="srSLmdjnSRIWFeMidiFF-31" value="Name" style="text;strokeColor=none;fillColor=none;spacingLeft=4;spacingRight=4;overflow=hidden;rotatable=0;points=[[0,0.5],[1,0.5]];portConstraint=eastwest;fontSize=12;whiteSpace=wrap;html=1;" vertex="1" parent="srSLmdjnSRIWFeMidiFF-30">
          <mxGeometry y="26" width="160" height="30" as="geometry" />
        </mxCell>
        <mxCell id="srSLmdjnSRIWFeMidiFF-32" value="Category" style="text;strokeColor=none;fillColor=none;spacingLeft=4;spacingRight=4;overflow=hidden;rotatable=0;points=[[0,0.5],[1,0.5]];portConstraint=eastwest;fontSize=12;whiteSpace=wrap;html=1;" vertex="1" parent="srSLmdjnSRIWFeMidiFF-30">
          <mxGeometry y="56" width="160" height="30" as="geometry" />
        </mxCell>
        <mxCell id="srSLmdjnSRIWFeMidiFF-33" value="Description" style="text;strokeColor=none;fillColor=none;spacingLeft=4;spacingRight=4;overflow=hidden;rotatable=0;points=[[0,0.5],[1,0.5]];portConstraint=eastwest;fontSize=12;whiteSpace=wrap;html=1;" vertex="1" parent="srSLmdjnSRIWFeMidiFF-30">
          <mxGeometry y="86" width="160" height="30" as="geometry" />
        </mxCell>
        <mxCell id="srSLmdjnSRIWFeMidiFF-34" value="..." style="text;strokeColor=none;fillColor=none;spacingLeft=4;spacingRight=4;overflow=hidden;rotatable=0;points=[[0,0.5],[1,0.5]];portConstraint=eastwest;fontSize=12;whiteSpace=wrap;html=1;" vertex="1" parent="srSLmdjnSRIWFeMidiFF-30">
          <mxGeometry y="116" width="160" height="30" as="geometry" />
        </mxCell>
        <mxCell id="srSLmdjnSRIWFeMidiFF-41" style="edgeStyle=orthogonalEdgeStyle;rounded=0;orthogonalLoop=1;jettySize=auto;html=1;entryX=0.501;entryY=1.013;entryDx=0;entryDy=0;entryPerimeter=0;" edge="1" parent="1" source="srSLmdjnSRIWFeMidiFF-7" target="srSLmdjnSRIWFeMidiFF-28">
          <mxGeometry relative="1" as="geometry" />
        </mxCell>
        <mxCell id="srSLmdjnSRIWFeMidiFF-63" value="1" style="edgeLabel;html=1;align=center;verticalAlign=middle;resizable=0;points=[];" vertex="1" connectable="0" parent="srSLmdjnSRIWFeMidiFF-41">
          <mxGeometry x="-0.853" y="1" relative="1" as="geometry">
            <mxPoint as="offset" />
          </mxGeometry>
        </mxCell>
        <mxCell id="srSLmdjnSRIWFeMidiFF-42" style="edgeStyle=orthogonalEdgeStyle;rounded=0;orthogonalLoop=1;jettySize=auto;html=1;entryX=0.501;entryY=1.013;entryDx=0;entryDy=0;entryPerimeter=0;" edge="1" parent="1" source="srSLmdjnSRIWFeMidiFF-30" target="srSLmdjnSRIWFeMidiFF-28">
          <mxGeometry relative="1" as="geometry" />
        </mxCell>
        <mxCell id="srSLmdjnSRIWFeMidiFF-61" value="1" style="edgeLabel;html=1;align=center;verticalAlign=middle;resizable=0;points=[];" vertex="1" connectable="0" parent="srSLmdjnSRIWFeMidiFF-42">
          <mxGeometry x="-0.8738" y="-3" relative="1" as="geometry">
            <mxPoint as="offset" />
          </mxGeometry>
        </mxCell>
        <mxCell id="srSLmdjnSRIWFeMidiFF-62" value="0..n" style="edgeLabel;html=1;align=center;verticalAlign=middle;resizable=0;points=[];" vertex="1" connectable="0" parent="srSLmdjnSRIWFeMidiFF-42">
          <mxGeometry x="0.8722" y="5" relative="1" as="geometry">
            <mxPoint x="4" as="offset" />
          </mxGeometry>
        </mxCell>
        <mxCell id="srSLmdjnSRIWFeMidiFF-43" value="ChatBox" style="swimlane;fontStyle=0;childLayout=stackLayout;horizontal=1;startSize=26;horizontalStack=0;resizeParent=1;resizeParentMax=0;resizeLast=0;collapsible=1;marginBottom=0;align=center;fontSize=14;rounded=1;" vertex="1" parent="1">
          <mxGeometry x="-160" y="-140" width="160" height="56" as="geometry" />
        </mxCell>
        <mxCell id="srSLmdjnSRIWFeMidiFF-49" value="..." style="text;strokeColor=none;fillColor=none;spacingLeft=4;spacingRight=4;overflow=hidden;rotatable=0;points=[[0,0.5],[1,0.5]];portConstraint=eastwest;fontSize=12;whiteSpace=wrap;html=1;" vertex="1" parent="srSLmdjnSRIWFeMidiFF-43">
          <mxGeometry y="26" width="160" height="30" as="geometry" />
        </mxCell>
        <mxCell id="srSLmdjnSRIWFeMidiFF-57" value="1" style="text;html=1;align=center;verticalAlign=middle;resizable=0;points=[];autosize=1;strokeColor=none;fillColor=none;" vertex="1" parent="1">
          <mxGeometry x="255" y="128" width="30" height="30" as="geometry" />
        </mxCell>
        <mxCell id="srSLmdjnSRIWFeMidiFF-58" value="0..n" style="text;html=1;align=center;verticalAlign=middle;resizable=0;points=[];autosize=1;strokeColor=none;fillColor=none;" vertex="1" parent="1">
          <mxGeometry x="440" y="128" width="40" height="30" as="geometry" />
        </mxCell>
        <mxCell id="srSLmdjnSRIWFeMidiFF-59" value="0..1" style="text;html=1;align=center;verticalAlign=middle;resizable=0;points=[];autosize=1;strokeColor=none;fillColor=none;" vertex="1" parent="1">
          <mxGeometry x="250" y="170" width="40" height="30" as="geometry" />
        </mxCell>
        <mxCell id="srSLmdjnSRIWFeMidiFF-60" value="0..1" style="text;html=1;align=center;verticalAlign=middle;resizable=0;points=[];autosize=1;strokeColor=none;fillColor=none;" vertex="1" parent="1">
          <mxGeometry x="440" y="170" width="40" height="30" as="geometry" />
        </mxCell>
        <mxCell id="srSLmdjnSRIWFeMidiFF-69" style="edgeStyle=orthogonalEdgeStyle;rounded=0;orthogonalLoop=1;jettySize=auto;html=1;entryX=1;entryY=0.5;entryDx=0;entryDy=0;" edge="1" source="srSLmdjnSRIWFeMidiFF-71" target="srSLmdjnSRIWFeMidiFF-103" parent="1">
          <mxGeometry relative="1" as="geometry" />
        </mxCell>
        <mxCell id="srSLmdjnSRIWFeMidiFF-114" style="edgeStyle=orthogonalEdgeStyle;rounded=0;orthogonalLoop=1;jettySize=auto;html=1;entryX=0;entryY=0.5;entryDx=0;entryDy=0;" edge="1" parent="1" source="srSLmdjnSRIWFeMidiFF-71" target="srSLmdjnSRIWFeMidiFF-88">
          <mxGeometry relative="1" as="geometry" />
        </mxCell>
        <mxCell id="srSLmdjnSRIWFeMidiFF-120" style="edgeStyle=orthogonalEdgeStyle;rounded=0;orthogonalLoop=1;jettySize=auto;html=1;" edge="1" parent="1" source="srSLmdjnSRIWFeMidiFF-71" target="srSLmdjnSRIWFeMidiFF-79">
          <mxGeometry relative="1" as="geometry" />
        </mxCell>
        <mxCell id="srSLmdjnSRIWFeMidiFF-71" value="User" style="swimlane;fontStyle=0;childLayout=stackLayout;horizontal=1;startSize=26;horizontalStack=0;resizeParent=1;resizeParentMax=0;resizeLast=0;collapsible=1;marginBottom=0;align=center;fontSize=14;rounded=1;" vertex="1" parent="1">
          <mxGeometry x="80" y="940" width="160" height="206" as="geometry" />
        </mxCell>
        <mxCell id="srSLmdjnSRIWFeMidiFF-72" value="Role" style="text;strokeColor=none;fillColor=none;spacingLeft=4;spacingRight=4;overflow=hidden;rotatable=0;points=[[0,0.5],[1,0.5]];portConstraint=eastwest;fontSize=12;whiteSpace=wrap;html=1;" vertex="1" parent="srSLmdjnSRIWFeMidiFF-71">
          <mxGeometry y="26" width="160" height="30" as="geometry" />
        </mxCell>
        <mxCell id="srSLmdjnSRIWFeMidiFF-73" value="LastName" style="text;strokeColor=none;fillColor=none;spacingLeft=4;spacingRight=4;overflow=hidden;rotatable=0;points=[[0,0.5],[1,0.5]];portConstraint=eastwest;fontSize=12;whiteSpace=wrap;html=1;" vertex="1" parent="srSLmdjnSRIWFeMidiFF-71">
          <mxGeometry y="56" width="160" height="30" as="geometry" />
        </mxCell>
        <mxCell id="srSLmdjnSRIWFeMidiFF-74" value="FirstName" style="text;strokeColor=none;fillColor=none;spacingLeft=4;spacingRight=4;overflow=hidden;rotatable=0;points=[[0,0.5],[1,0.5]];portConstraint=eastwest;fontSize=12;whiteSpace=wrap;html=1;" vertex="1" parent="srSLmdjnSRIWFeMidiFF-71">
          <mxGeometry y="86" width="160" height="30" as="geometry" />
        </mxCell>
        <mxCell id="srSLmdjnSRIWFeMidiFF-75" value="birthday" style="text;strokeColor=none;fillColor=none;spacingLeft=4;spacingRight=4;overflow=hidden;rotatable=0;points=[[0,0.5],[1,0.5]];portConstraint=eastwest;fontSize=12;whiteSpace=wrap;html=1;" vertex="1" parent="srSLmdjnSRIWFeMidiFF-71">
          <mxGeometry y="116" width="160" height="30" as="geometry" />
        </mxCell>
        <mxCell id="srSLmdjnSRIWFeMidiFF-76" value="Email" style="text;strokeColor=none;fillColor=none;spacingLeft=4;spacingRight=4;overflow=hidden;rotatable=0;points=[[0,0.5],[1,0.5]];portConstraint=eastwest;fontSize=12;whiteSpace=wrap;html=1;" vertex="1" parent="srSLmdjnSRIWFeMidiFF-71">
          <mxGeometry y="146" width="160" height="30" as="geometry" />
        </mxCell>
        <mxCell id="srSLmdjnSRIWFeMidiFF-77" value="Password" style="text;strokeColor=none;fillColor=none;spacingLeft=4;spacingRight=4;overflow=hidden;rotatable=0;points=[[0,0.5],[1,0.5]];portConstraint=eastwest;fontSize=12;whiteSpace=wrap;html=1;" vertex="1" parent="srSLmdjnSRIWFeMidiFF-71">
          <mxGeometry y="176" width="160" height="30" as="geometry" />
        </mxCell>
        <mxCell id="srSLmdjnSRIWFeMidiFF-78" value="Address" style="swimlane;fontStyle=0;childLayout=stackLayout;horizontal=1;startSize=26;horizontalStack=0;resizeParent=1;resizeParentMax=0;resizeLast=0;collapsible=1;marginBottom=0;align=center;fontSize=14;rounded=1;" vertex="1" parent="1">
          <mxGeometry x="-180" y="1070" width="160" height="206" as="geometry" />
        </mxCell>
        <mxCell id="srSLmdjnSRIWFeMidiFF-79" value="FK idUser" style="text;strokeColor=none;fillColor=none;spacingLeft=4;spacingRight=4;overflow=hidden;rotatable=0;points=[[0,0.5],[1,0.5]];portConstraint=eastwest;fontSize=12;whiteSpace=wrap;html=1;" vertex="1" parent="srSLmdjnSRIWFeMidiFF-78">
          <mxGeometry y="26" width="160" height="30" as="geometry" />
        </mxCell>
        <mxCell id="srSLmdjnSRIWFeMidiFF-117" value="Road&#39;s number" style="text;strokeColor=none;fillColor=none;spacingLeft=4;spacingRight=4;overflow=hidden;rotatable=0;points=[[0,0.5],[1,0.5]];portConstraint=eastwest;fontSize=12;whiteSpace=wrap;html=1;" vertex="1" parent="srSLmdjnSRIWFeMidiFF-78">
          <mxGeometry y="56" width="160" height="30" as="geometry" />
        </mxCell>
        <mxCell id="srSLmdjnSRIWFeMidiFF-80" value="Road&#39;s name" style="text;strokeColor=none;fillColor=none;spacingLeft=4;spacingRight=4;overflow=hidden;rotatable=0;points=[[0,0.5],[1,0.5]];portConstraint=eastwest;fontSize=12;whiteSpace=wrap;html=1;" vertex="1" parent="srSLmdjnSRIWFeMidiFF-78">
          <mxGeometry y="86" width="160" height="30" as="geometry" />
        </mxCell>
        <mxCell id="srSLmdjnSRIWFeMidiFF-81" value="City" style="text;strokeColor=none;fillColor=none;spacingLeft=4;spacingRight=4;overflow=hidden;rotatable=0;points=[[0,0.5],[1,0.5]];portConstraint=eastwest;fontSize=12;whiteSpace=wrap;html=1;" vertex="1" parent="srSLmdjnSRIWFeMidiFF-78">
          <mxGeometry y="116" width="160" height="30" as="geometry" />
        </mxCell>
        <mxCell id="srSLmdjnSRIWFeMidiFF-82" value="Postal code" style="text;strokeColor=none;fillColor=none;spacingLeft=4;spacingRight=4;overflow=hidden;rotatable=0;points=[[0,0.5],[1,0.5]];portConstraint=eastwest;fontSize=12;whiteSpace=wrap;html=1;" vertex="1" parent="srSLmdjnSRIWFeMidiFF-78">
          <mxGeometry y="146" width="160" height="30" as="geometry" />
        </mxCell>
        <mxCell id="srSLmdjnSRIWFeMidiFF-83" value="Country" style="text;strokeColor=none;fillColor=none;spacingLeft=4;spacingRight=4;overflow=hidden;rotatable=0;points=[[0,0.5],[1,0.5]];portConstraint=eastwest;fontSize=12;whiteSpace=wrap;html=1;" vertex="1" parent="srSLmdjnSRIWFeMidiFF-78">
          <mxGeometry y="176" width="160" height="30" as="geometry" />
        </mxCell>
        <mxCell id="srSLmdjnSRIWFeMidiFF-84" value="Media" style="swimlane;fontStyle=0;childLayout=stackLayout;horizontal=1;startSize=26;horizontalStack=0;resizeParent=1;resizeParentMax=0;resizeLast=0;collapsible=1;marginBottom=0;align=center;fontSize=14;rounded=1;" vertex="1" parent="1">
          <mxGeometry x="300" y="1140" width="160" height="146" as="geometry" />
        </mxCell>
        <mxCell id="srSLmdjnSRIWFeMidiFF-85" value="FK idUser" style="text;strokeColor=none;fillColor=none;spacingLeft=4;spacingRight=4;overflow=hidden;rotatable=0;points=[[0,0.5],[1,0.5]];portConstraint=eastwest;fontSize=12;whiteSpace=wrap;html=1;" vertex="1" parent="srSLmdjnSRIWFeMidiFF-84">
          <mxGeometry y="26" width="160" height="30" as="geometry" />
        </mxCell>
        <mxCell id="srSLmdjnSRIWFeMidiFF-119" value="idObject" style="text;strokeColor=none;fillColor=none;spacingLeft=4;spacingRight=4;overflow=hidden;rotatable=0;points=[[0,0.5],[1,0.5]];portConstraint=eastwest;fontSize=12;whiteSpace=wrap;html=1;" vertex="1" parent="srSLmdjnSRIWFeMidiFF-84">
          <mxGeometry y="56" width="160" height="30" as="geometry" />
        </mxCell>
        <mxCell id="srSLmdjnSRIWFeMidiFF-118" value="Name" style="text;strokeColor=none;fillColor=none;spacingLeft=4;spacingRight=4;overflow=hidden;rotatable=0;points=[[0,0.5],[1,0.5]];portConstraint=eastwest;fontSize=12;whiteSpace=wrap;html=1;" vertex="1" parent="srSLmdjnSRIWFeMidiFF-84">
          <mxGeometry y="86" width="160" height="30" as="geometry" />
        </mxCell>
        <mxCell id="srSLmdjnSRIWFeMidiFF-86" value="Category" style="text;strokeColor=none;fillColor=none;spacingLeft=4;spacingRight=4;overflow=hidden;rotatable=0;points=[[0,0.5],[1,0.5]];portConstraint=eastwest;fontSize=12;whiteSpace=wrap;html=1;" vertex="1" parent="srSLmdjnSRIWFeMidiFF-84">
          <mxGeometry y="116" width="160" height="30" as="geometry" />
        </mxCell>
        <mxCell id="srSLmdjnSRIWFeMidiFF-87" value="Comment" style="swimlane;fontStyle=0;childLayout=stackLayout;horizontal=1;startSize=26;horizontalStack=0;resizeParent=1;resizeParentMax=0;resizeLast=0;collapsible=1;marginBottom=0;align=center;fontSize=14;rounded=1;" vertex="1" parent="1">
          <mxGeometry x="330" y="740" width="160" height="146" as="geometry" />
        </mxCell>
        <mxCell id="srSLmdjnSRIWFeMidiFF-88" value="FK idUser" style="text;strokeColor=none;fillColor=none;spacingLeft=4;spacingRight=4;overflow=hidden;rotatable=0;points=[[0,0.5],[1,0.5]];portConstraint=eastwest;fontSize=12;whiteSpace=wrap;html=1;" vertex="1" parent="srSLmdjnSRIWFeMidiFF-87">
          <mxGeometry y="26" width="160" height="30" as="geometry" />
        </mxCell>
        <mxCell id="srSLmdjnSRIWFeMidiFF-112" value="FK idObjet" style="text;strokeColor=none;fillColor=none;spacingLeft=4;spacingRight=4;overflow=hidden;rotatable=0;points=[[0,0.5],[1,0.5]];portConstraint=eastwest;fontSize=12;whiteSpace=wrap;html=1;" vertex="1" parent="srSLmdjnSRIWFeMidiFF-87">
          <mxGeometry y="56" width="160" height="30" as="geometry" />
        </mxCell>
        <mxCell id="srSLmdjnSRIWFeMidiFF-113" value="Rate" style="text;strokeColor=none;fillColor=none;spacingLeft=4;spacingRight=4;overflow=hidden;rotatable=0;points=[[0,0.5],[1,0.5]];portConstraint=eastwest;fontSize=12;whiteSpace=wrap;html=1;" vertex="1" parent="srSLmdjnSRIWFeMidiFF-87">
          <mxGeometry y="86" width="160" height="30" as="geometry" />
        </mxCell>
        <mxCell id="srSLmdjnSRIWFeMidiFF-89" value="Message" style="text;strokeColor=none;fillColor=none;spacingLeft=4;spacingRight=4;overflow=hidden;rotatable=0;points=[[0,0.5],[1,0.5]];portConstraint=eastwest;fontSize=12;whiteSpace=wrap;html=1;" vertex="1" parent="srSLmdjnSRIWFeMidiFF-87">
          <mxGeometry y="116" width="160" height="30" as="geometry" />
        </mxCell>
        <mxCell id="srSLmdjnSRIWFeMidiFF-115" style="edgeStyle=orthogonalEdgeStyle;rounded=0;orthogonalLoop=1;jettySize=auto;html=1;entryX=1;entryY=0.5;entryDx=0;entryDy=0;" edge="1" parent="1" source="srSLmdjnSRIWFeMidiFF-92" target="srSLmdjnSRIWFeMidiFF-112">
          <mxGeometry relative="1" as="geometry" />
        </mxCell>
        <mxCell id="srSLmdjnSRIWFeMidiFF-92" value="Object" style="swimlane;fontStyle=0;childLayout=stackLayout;horizontal=1;startSize=26;horizontalStack=0;resizeParent=1;resizeParentMax=0;resizeLast=0;collapsible=1;marginBottom=0;align=center;fontSize=14;rounded=1;" vertex="1" parent="1">
          <mxGeometry x="500" y="970" width="160" height="146" as="geometry" />
        </mxCell>
        <mxCell id="srSLmdjnSRIWFeMidiFF-93" value="Name" style="text;strokeColor=none;fillColor=none;spacingLeft=4;spacingRight=4;overflow=hidden;rotatable=0;points=[[0,0.5],[1,0.5]];portConstraint=eastwest;fontSize=12;whiteSpace=wrap;html=1;" vertex="1" parent="srSLmdjnSRIWFeMidiFF-92">
          <mxGeometry y="26" width="160" height="30" as="geometry" />
        </mxCell>
        <mxCell id="srSLmdjnSRIWFeMidiFF-94" value="Category" style="text;strokeColor=none;fillColor=none;spacingLeft=4;spacingRight=4;overflow=hidden;rotatable=0;points=[[0,0.5],[1,0.5]];portConstraint=eastwest;fontSize=12;whiteSpace=wrap;html=1;" vertex="1" parent="srSLmdjnSRIWFeMidiFF-92">
          <mxGeometry y="56" width="160" height="30" as="geometry" />
        </mxCell>
        <mxCell id="srSLmdjnSRIWFeMidiFF-95" value="Description" style="text;strokeColor=none;fillColor=none;spacingLeft=4;spacingRight=4;overflow=hidden;rotatable=0;points=[[0,0.5],[1,0.5]];portConstraint=eastwest;fontSize=12;whiteSpace=wrap;html=1;" vertex="1" parent="srSLmdjnSRIWFeMidiFF-92">
          <mxGeometry y="86" width="160" height="30" as="geometry" />
        </mxCell>
        <mxCell id="srSLmdjnSRIWFeMidiFF-96" value="..." style="text;strokeColor=none;fillColor=none;spacingLeft=4;spacingRight=4;overflow=hidden;rotatable=0;points=[[0,0.5],[1,0.5]];portConstraint=eastwest;fontSize=12;whiteSpace=wrap;html=1;" vertex="1" parent="srSLmdjnSRIWFeMidiFF-92">
          <mxGeometry y="116" width="160" height="30" as="geometry" />
        </mxCell>
        <mxCell id="srSLmdjnSRIWFeMidiFF-102" value="ChatBox(Websocket)" style="swimlane;fontStyle=0;childLayout=stackLayout;horizontal=1;startSize=26;horizontalStack=0;resizeParent=1;resizeParentMax=0;resizeLast=0;collapsible=1;marginBottom=0;align=center;fontSize=14;rounded=1;" vertex="1" parent="1">
          <mxGeometry x="-160" y="740" width="160" height="82" as="geometry" />
        </mxCell>
        <mxCell id="srSLmdjnSRIWFeMidiFF-103" value="FK idUser" style="text;strokeColor=none;fillColor=none;spacingLeft=4;spacingRight=4;overflow=hidden;rotatable=0;points=[[0,0.5],[1,0.5]];portConstraint=eastwest;fontSize=12;whiteSpace=wrap;html=1;" vertex="1" parent="srSLmdjnSRIWFeMidiFF-102">
          <mxGeometry y="26" width="160" height="30" as="geometry" />
        </mxCell>
        <mxCell id="srSLmdjnSRIWFeMidiFF-111" value="..." style="text;strokeColor=none;fillColor=none;spacingLeft=4;spacingRight=4;overflow=hidden;rotatable=0;points=[[0,0.5],[1,0.5]];portConstraint=eastwest;fontSize=12;whiteSpace=wrap;html=1;" vertex="1" parent="srSLmdjnSRIWFeMidiFF-102">
          <mxGeometry y="56" width="160" height="26" as="geometry" />
        </mxCell>
        <mxCell id="srSLmdjnSRIWFeMidiFF-108" value="&lt;span style=&quot;font-size: 20px;&quot;&gt;&lt;b&gt;Modèle Conceptuel des données&lt;/b&gt;&lt;/span&gt;" style="text;html=1;align=center;verticalAlign=middle;resizable=0;points=[];autosize=1;strokeColor=none;fillColor=none;" vertex="1" parent="1">
          <mxGeometry x="-45" y="-257" width="330" height="40" as="geometry" />
        </mxCell>
        <mxCell id="srSLmdjnSRIWFeMidiFF-110" value="&lt;span style=&quot;font-size: 20px;&quot;&gt;&lt;b&gt;Modèle Logique des données&lt;/b&gt;&lt;/span&gt;" style="text;html=1;align=center;verticalAlign=middle;resizable=0;points=[];autosize=1;strokeColor=none;fillColor=none;" vertex="1" parent="1">
          <mxGeometry x="25" y="640" width="300" height="40" as="geometry" />
        </mxCell>
        <mxCell id="srSLmdjnSRIWFeMidiFF-121" style="edgeStyle=orthogonalEdgeStyle;rounded=0;orthogonalLoop=1;jettySize=auto;html=1;" edge="1" parent="1" source="srSLmdjnSRIWFeMidiFF-94" target="srSLmdjnSRIWFeMidiFF-119">
          <mxGeometry relative="1" as="geometry" />
        </mxCell>
        <mxCell id="srSLmdjnSRIWFeMidiFF-122" style="edgeStyle=orthogonalEdgeStyle;rounded=0;orthogonalLoop=1;jettySize=auto;html=1;" edge="1" parent="1" source="srSLmdjnSRIWFeMidiFF-72" target="srSLmdjnSRIWFeMidiFF-85">
          <mxGeometry relative="1" as="geometry" />
        </mxCell>
        <mxCell id="srSLmdjnSRIWFeMidiFF-133" value="Address" style="swimlane;fontStyle=0;childLayout=stackLayout;horizontal=1;startSize=26;horizontalStack=0;resizeParent=1;resizeParentMax=0;resizeLast=0;collapsible=1;marginBottom=0;align=center;fontSize=14;rounded=1;" vertex="1" parent="1">
          <mxGeometry x="-380" y="1820" width="160" height="206" as="geometry" />
        </mxCell>
        <mxCell id="srSLmdjnSRIWFeMidiFF-134" value="FK idUser" style="text;strokeColor=none;fillColor=none;spacingLeft=4;spacingRight=4;overflow=hidden;rotatable=0;points=[[0,0.5],[1,0.5]];portConstraint=eastwest;fontSize=12;whiteSpace=wrap;html=1;" vertex="1" parent="srSLmdjnSRIWFeMidiFF-133">
          <mxGeometry y="26" width="160" height="30" as="geometry" />
        </mxCell>
        <mxCell id="srSLmdjnSRIWFeMidiFF-135" value="Road&#39;s number" style="text;strokeColor=none;fillColor=none;spacingLeft=4;spacingRight=4;overflow=hidden;rotatable=0;points=[[0,0.5],[1,0.5]];portConstraint=eastwest;fontSize=12;whiteSpace=wrap;html=1;" vertex="1" parent="srSLmdjnSRIWFeMidiFF-133">
          <mxGeometry y="56" width="160" height="30" as="geometry" />
        </mxCell>
        <mxCell id="srSLmdjnSRIWFeMidiFF-136" value="Road&#39;s name" style="text;strokeColor=none;fillColor=none;spacingLeft=4;spacingRight=4;overflow=hidden;rotatable=0;points=[[0,0.5],[1,0.5]];portConstraint=eastwest;fontSize=12;whiteSpace=wrap;html=1;" vertex="1" parent="srSLmdjnSRIWFeMidiFF-133">
          <mxGeometry y="86" width="160" height="30" as="geometry" />
        </mxCell>
        <mxCell id="srSLmdjnSRIWFeMidiFF-137" value="City" style="text;strokeColor=none;fillColor=none;spacingLeft=4;spacingRight=4;overflow=hidden;rotatable=0;points=[[0,0.5],[1,0.5]];portConstraint=eastwest;fontSize=12;whiteSpace=wrap;html=1;" vertex="1" parent="srSLmdjnSRIWFeMidiFF-133">
          <mxGeometry y="116" width="160" height="30" as="geometry" />
        </mxCell>
        <mxCell id="srSLmdjnSRIWFeMidiFF-138" value="Postal code" style="text;strokeColor=none;fillColor=none;spacingLeft=4;spacingRight=4;overflow=hidden;rotatable=0;points=[[0,0.5],[1,0.5]];portConstraint=eastwest;fontSize=12;whiteSpace=wrap;html=1;" vertex="1" parent="srSLmdjnSRIWFeMidiFF-133">
          <mxGeometry y="146" width="160" height="30" as="geometry" />
        </mxCell>
        <mxCell id="srSLmdjnSRIWFeMidiFF-139" value="Country" style="text;strokeColor=none;fillColor=none;spacingLeft=4;spacingRight=4;overflow=hidden;rotatable=0;points=[[0,0.5],[1,0.5]];portConstraint=eastwest;fontSize=12;whiteSpace=wrap;html=1;" vertex="1" parent="srSLmdjnSRIWFeMidiFF-133">
          <mxGeometry y="176" width="160" height="30" as="geometry" />
        </mxCell>
        <mxCell id="srSLmdjnSRIWFeMidiFF-140" value="ClassMedia" style="swimlane;fontStyle=0;childLayout=stackLayout;horizontal=1;startSize=26;horizontalStack=0;resizeParent=1;resizeParentMax=0;resizeLast=0;collapsible=1;marginBottom=0;align=center;fontSize=14;rounded=1;" vertex="1" parent="1">
          <mxGeometry x="155" y="1940" width="160" height="146" as="geometry" />
        </mxCell>
        <mxCell id="srSLmdjnSRIWFeMidiFF-141" value="FK idUser" style="text;strokeColor=none;fillColor=none;spacingLeft=4;spacingRight=4;overflow=hidden;rotatable=0;points=[[0,0.5],[1,0.5]];portConstraint=eastwest;fontSize=12;whiteSpace=wrap;html=1;" vertex="1" parent="srSLmdjnSRIWFeMidiFF-140">
          <mxGeometry y="26" width="160" height="30" as="geometry" />
        </mxCell>
        <mxCell id="srSLmdjnSRIWFeMidiFF-142" value="idObject" style="text;strokeColor=none;fillColor=none;spacingLeft=4;spacingRight=4;overflow=hidden;rotatable=0;points=[[0,0.5],[1,0.5]];portConstraint=eastwest;fontSize=12;whiteSpace=wrap;html=1;" vertex="1" parent="srSLmdjnSRIWFeMidiFF-140">
          <mxGeometry y="56" width="160" height="30" as="geometry" />
        </mxCell>
        <mxCell id="srSLmdjnSRIWFeMidiFF-143" value="Name" style="text;strokeColor=none;fillColor=none;spacingLeft=4;spacingRight=4;overflow=hidden;rotatable=0;points=[[0,0.5],[1,0.5]];portConstraint=eastwest;fontSize=12;whiteSpace=wrap;html=1;" vertex="1" parent="srSLmdjnSRIWFeMidiFF-140">
          <mxGeometry y="86" width="160" height="30" as="geometry" />
        </mxCell>
        <mxCell id="srSLmdjnSRIWFeMidiFF-144" value="Category" style="text;strokeColor=none;fillColor=none;spacingLeft=4;spacingRight=4;overflow=hidden;rotatable=0;points=[[0,0.5],[1,0.5]];portConstraint=eastwest;fontSize=12;whiteSpace=wrap;html=1;" vertex="1" parent="srSLmdjnSRIWFeMidiFF-140">
          <mxGeometry y="116" width="160" height="30" as="geometry" />
        </mxCell>
        <mxCell id="srSLmdjnSRIWFeMidiFF-145" value="Comment" style="swimlane;fontStyle=0;childLayout=stackLayout;horizontal=1;startSize=26;horizontalStack=0;resizeParent=1;resizeParentMax=0;resizeLast=0;collapsible=1;marginBottom=0;align=center;fontSize=14;rounded=1;" vertex="1" parent="1">
          <mxGeometry x="100" y="1460" width="160" height="146" as="geometry" />
        </mxCell>
        <mxCell id="srSLmdjnSRIWFeMidiFF-146" value="FK idUser" style="text;strokeColor=none;fillColor=none;spacingLeft=4;spacingRight=4;overflow=hidden;rotatable=0;points=[[0,0.5],[1,0.5]];portConstraint=eastwest;fontSize=12;whiteSpace=wrap;html=1;" vertex="1" parent="srSLmdjnSRIWFeMidiFF-145">
          <mxGeometry y="26" width="160" height="30" as="geometry" />
        </mxCell>
        <mxCell id="srSLmdjnSRIWFeMidiFF-147" value="FK idObjet" style="text;strokeColor=none;fillColor=none;spacingLeft=4;spacingRight=4;overflow=hidden;rotatable=0;points=[[0,0.5],[1,0.5]];portConstraint=eastwest;fontSize=12;whiteSpace=wrap;html=1;" vertex="1" parent="srSLmdjnSRIWFeMidiFF-145">
          <mxGeometry y="56" width="160" height="30" as="geometry" />
        </mxCell>
        <mxCell id="srSLmdjnSRIWFeMidiFF-148" value="Rate" style="text;strokeColor=none;fillColor=none;spacingLeft=4;spacingRight=4;overflow=hidden;rotatable=0;points=[[0,0.5],[1,0.5]];portConstraint=eastwest;fontSize=12;whiteSpace=wrap;html=1;" vertex="1" parent="srSLmdjnSRIWFeMidiFF-145">
          <mxGeometry y="86" width="160" height="30" as="geometry" />
        </mxCell>
        <mxCell id="srSLmdjnSRIWFeMidiFF-149" value="Message" style="text;strokeColor=none;fillColor=none;spacingLeft=4;spacingRight=4;overflow=hidden;rotatable=0;points=[[0,0.5],[1,0.5]];portConstraint=eastwest;fontSize=12;whiteSpace=wrap;html=1;" vertex="1" parent="srSLmdjnSRIWFeMidiFF-145">
          <mxGeometry y="116" width="160" height="30" as="geometry" />
        </mxCell>
        <mxCell id="srSLmdjnSRIWFeMidiFF-151" value="Service" style="swimlane;fontStyle=0;childLayout=stackLayout;horizontal=1;startSize=26;horizontalStack=0;resizeParent=1;resizeParentMax=0;resizeLast=0;collapsible=1;marginBottom=0;align=center;fontSize=14;rounded=1;" vertex="1" parent="1">
          <mxGeometry x="-320" y="1460" width="160" height="82" as="geometry" />
        </mxCell>
        <mxCell id="srSLmdjnSRIWFeMidiFF-152" value="FK idUser" style="text;strokeColor=none;fillColor=none;spacingLeft=4;spacingRight=4;overflow=hidden;rotatable=0;points=[[0,0.5],[1,0.5]];portConstraint=eastwest;fontSize=12;whiteSpace=wrap;html=1;" vertex="1" parent="srSLmdjnSRIWFeMidiFF-151">
          <mxGeometry y="26" width="160" height="30" as="geometry" />
        </mxCell>
        <mxCell id="srSLmdjnSRIWFeMidiFF-153" value="..." style="text;strokeColor=none;fillColor=none;spacingLeft=4;spacingRight=4;overflow=hidden;rotatable=0;points=[[0,0.5],[1,0.5]];portConstraint=eastwest;fontSize=12;whiteSpace=wrap;html=1;" vertex="1" parent="srSLmdjnSRIWFeMidiFF-151">
          <mxGeometry y="56" width="160" height="26" as="geometry" />
        </mxCell>
        <mxCell id="srSLmdjnSRIWFeMidiFF-154" value="&lt;span style=&quot;font-size: 20px;&quot;&gt;&lt;b&gt;Diagrammes de classes&lt;/b&gt;&lt;/span&gt;" style="text;html=1;align=center;verticalAlign=middle;resizable=0;points=[];autosize=1;strokeColor=none;fillColor=none;" vertex="1" parent="1">
          <mxGeometry x="100" y="1400" width="250" height="40" as="geometry" />
        </mxCell>
        <mxCell id="srSLmdjnSRIWFeMidiFF-157" value="ClassItem" style="swimlane;fontStyle=0;childLayout=stackLayout;horizontal=1;startSize=26;horizontalStack=0;resizeParent=1;resizeParentMax=0;resizeLast=0;collapsible=1;marginBottom=0;align=center;fontSize=14;rounded=1;" vertex="1" parent="1">
          <mxGeometry x="460" y="1780" width="160" height="176" as="geometry" />
        </mxCell>
        <mxCell id="srSLmdjnSRIWFeMidiFF-158" value="Name" style="text;strokeColor=none;fillColor=none;spacingLeft=4;spacingRight=4;overflow=hidden;rotatable=0;points=[[0,0.5],[1,0.5]];portConstraint=eastwest;fontSize=12;whiteSpace=wrap;html=1;" vertex="1" parent="srSLmdjnSRIWFeMidiFF-157">
          <mxGeometry y="26" width="160" height="30" as="geometry" />
        </mxCell>
        <mxCell id="srSLmdjnSRIWFeMidiFF-159" value="Category" style="text;strokeColor=none;fillColor=none;spacingLeft=4;spacingRight=4;overflow=hidden;rotatable=0;points=[[0,0.5],[1,0.5]];portConstraint=eastwest;fontSize=12;whiteSpace=wrap;html=1;" vertex="1" parent="srSLmdjnSRIWFeMidiFF-157">
          <mxGeometry y="56" width="160" height="30" as="geometry" />
        </mxCell>
        <mxCell id="srSLmdjnSRIWFeMidiFF-184" value="Description" style="text;strokeColor=none;fillColor=none;spacingLeft=4;spacingRight=4;overflow=hidden;rotatable=0;points=[[0,0.5],[1,0.5]];portConstraint=eastwest;fontSize=12;whiteSpace=wrap;html=1;" vertex="1" parent="srSLmdjnSRIWFeMidiFF-157">
          <mxGeometry y="86" width="160" height="30" as="geometry" />
        </mxCell>
        <mxCell id="srSLmdjnSRIWFeMidiFF-160" value="List&amp;nbsp; of ClassMedias medias" style="text;strokeColor=none;fillColor=none;spacingLeft=4;spacingRight=4;overflow=hidden;rotatable=0;points=[[0,0.5],[1,0.5]];portConstraint=eastwest;fontSize=12;whiteSpace=wrap;html=1;" vertex="1" parent="srSLmdjnSRIWFeMidiFF-157">
          <mxGeometry y="116" width="160" height="30" as="geometry" />
        </mxCell>
        <mxCell id="srSLmdjnSRIWFeMidiFF-161" value="..." style="text;strokeColor=none;fillColor=none;spacingLeft=4;spacingRight=4;overflow=hidden;rotatable=0;points=[[0,0.5],[1,0.5]];portConstraint=eastwest;fontSize=12;whiteSpace=wrap;html=1;" vertex="1" parent="srSLmdjnSRIWFeMidiFF-157">
          <mxGeometry y="146" width="160" height="30" as="geometry" />
        </mxCell>
        <mxCell id="srSLmdjnSRIWFeMidiFF-163" value="ClassUser" style="swimlane;fontStyle=1;align=center;verticalAlign=top;childLayout=stackLayout;horizontal=1;startSize=26;horizontalStack=0;resizeParent=1;resizeParentMax=0;resizeLast=0;collapsible=1;marginBottom=0;whiteSpace=wrap;html=1;rounded=1;" vertex="1" parent="1">
          <mxGeometry x="-160" y="1640" width="240" height="190" as="geometry" />
        </mxCell>
        <mxCell id="srSLmdjnSRIWFeMidiFF-164" value="+..." style="text;strokeColor=none;fillColor=none;align=left;verticalAlign=top;spacingLeft=4;spacingRight=4;overflow=hidden;rotatable=0;points=[[0,0.5],[1,0.5]];portConstraint=eastwest;whiteSpace=wrap;html=1;" vertex="1" parent="srSLmdjnSRIWFeMidiFF-163">
          <mxGeometry y="26" width="240" height="26" as="geometry" />
        </mxCell>
        <mxCell id="srSLmdjnSRIWFeMidiFF-170" value="+String Role" style="text;strokeColor=none;fillColor=none;align=left;verticalAlign=top;spacingLeft=4;spacingRight=4;overflow=hidden;rotatable=0;points=[[0,0.5],[1,0.5]];portConstraint=eastwest;whiteSpace=wrap;html=1;" vertex="1" parent="srSLmdjnSRIWFeMidiFF-163">
          <mxGeometry y="52" width="240" height="26" as="geometry" />
        </mxCell>
        <mxCell id="srSLmdjnSRIWFeMidiFF-186" value="+ClassComment&amp;nbsp; comments" style="text;strokeColor=none;fillColor=none;align=left;verticalAlign=top;spacingLeft=4;spacingRight=4;overflow=hidden;rotatable=0;points=[[0,0.5],[1,0.5]];portConstraint=eastwest;whiteSpace=wrap;html=1;" vertex="1" parent="srSLmdjnSRIWFeMidiFF-163">
          <mxGeometry y="78" width="240" height="26" as="geometry" />
        </mxCell>
        <mxCell id="srSLmdjnSRIWFeMidiFF-167" value="+Array of ClassAddress addresses" style="text;strokeColor=none;fillColor=none;align=left;verticalAlign=top;spacingLeft=4;spacingRight=4;overflow=hidden;rotatable=0;points=[[0,0.5],[1,0.5]];portConstraint=eastwest;whiteSpace=wrap;html=1;" vertex="1" parent="srSLmdjnSRIWFeMidiFF-163">
          <mxGeometry y="104" width="240" height="26" as="geometry" />
        </mxCell>
        <mxCell id="srSLmdjnSRIWFeMidiFF-169" value="+Array of ClassMedia medias" style="text;strokeColor=none;fillColor=none;align=left;verticalAlign=top;spacingLeft=4;spacingRight=4;overflow=hidden;rotatable=0;points=[[0,0.5],[1,0.5]];portConstraint=eastwest;whiteSpace=wrap;html=1;" vertex="1" parent="srSLmdjnSRIWFeMidiFF-163">
          <mxGeometry y="130" width="240" height="26" as="geometry" />
        </mxCell>
        <mxCell id="srSLmdjnSRIWFeMidiFF-165" value="" style="line;strokeWidth=1;fillColor=none;align=left;verticalAlign=middle;spacingTop=-1;spacingLeft=3;spacingRight=3;rotatable=0;labelPosition=right;points=[];portConstraint=eastwest;strokeColor=inherit;" vertex="1" parent="srSLmdjnSRIWFeMidiFF-163">
          <mxGeometry y="156" width="240" height="8" as="geometry" />
        </mxCell>
        <mxCell id="srSLmdjnSRIWFeMidiFF-166" value="+..." style="text;strokeColor=none;fillColor=none;align=left;verticalAlign=top;spacingLeft=4;spacingRight=4;overflow=hidden;rotatable=0;points=[[0,0.5],[1,0.5]];portConstraint=eastwest;whiteSpace=wrap;html=1;" vertex="1" parent="srSLmdjnSRIWFeMidiFF-163">
          <mxGeometry y="164" width="240" height="26" as="geometry" />
        </mxCell>
        <mxCell id="srSLmdjnSRIWFeMidiFF-172" style="edgeStyle=orthogonalEdgeStyle;rounded=0;orthogonalLoop=1;jettySize=auto;html=1;entryX=0.5;entryY=0;entryDx=0;entryDy=0;" edge="1" parent="1" source="srSLmdjnSRIWFeMidiFF-167" target="srSLmdjnSRIWFeMidiFF-133">
          <mxGeometry relative="1" as="geometry" />
        </mxCell>
        <mxCell id="srSLmdjnSRIWFeMidiFF-173" style="edgeStyle=orthogonalEdgeStyle;rounded=0;orthogonalLoop=1;jettySize=auto;html=1;entryX=0.5;entryY=0;entryDx=0;entryDy=0;" edge="1" parent="1" source="srSLmdjnSRIWFeMidiFF-169" target="srSLmdjnSRIWFeMidiFF-140">
          <mxGeometry relative="1" as="geometry" />
        </mxCell>
        <mxCell id="srSLmdjnSRIWFeMidiFF-174" style="edgeStyle=orthogonalEdgeStyle;rounded=0;orthogonalLoop=1;jettySize=auto;html=1;entryX=0.46;entryY=1.001;entryDx=0;entryDy=0;entryPerimeter=0;" edge="1" parent="1" source="srSLmdjnSRIWFeMidiFF-163" target="srSLmdjnSRIWFeMidiFF-153">
          <mxGeometry relative="1" as="geometry" />
        </mxCell>
        <mxCell id="srSLmdjnSRIWFeMidiFF-177" value="ClassManager" style="swimlane;fontStyle=0;childLayout=stackLayout;horizontal=1;startSize=26;horizontalStack=0;resizeParent=1;resizeParentMax=0;resizeLast=0;collapsible=1;marginBottom=0;align=center;fontSize=14;rounded=1;" vertex="1" parent="1">
          <mxGeometry x="280" y="1638" width="160" height="116" as="geometry" />
        </mxCell>
        <mxCell id="srSLmdjnSRIWFeMidiFF-178" value="List of ClassItems items" style="text;strokeColor=none;fillColor=none;spacingLeft=4;spacingRight=4;overflow=hidden;rotatable=0;points=[[0,0.5],[1,0.5]];portConstraint=eastwest;fontSize=12;whiteSpace=wrap;html=1;" vertex="1" parent="srSLmdjnSRIWFeMidiFF-177">
          <mxGeometry y="26" width="160" height="30" as="geometry" />
        </mxCell>
        <mxCell id="srSLmdjnSRIWFeMidiFF-179" value="ClassItem&amp;nbsp; current" style="text;strokeColor=none;fillColor=none;spacingLeft=4;spacingRight=4;overflow=hidden;rotatable=0;points=[[0,0.5],[1,0.5]];portConstraint=eastwest;fontSize=12;whiteSpace=wrap;html=1;" vertex="1" parent="srSLmdjnSRIWFeMidiFF-177">
          <mxGeometry y="56" width="160" height="30" as="geometry" />
        </mxCell>
        <mxCell id="srSLmdjnSRIWFeMidiFF-181" value="..." style="text;strokeColor=none;fillColor=none;spacingLeft=4;spacingRight=4;overflow=hidden;rotatable=0;points=[[0,0.5],[1,0.5]];portConstraint=eastwest;fontSize=12;whiteSpace=wrap;html=1;" vertex="1" parent="srSLmdjnSRIWFeMidiFF-177">
          <mxGeometry y="86" width="160" height="30" as="geometry" />
        </mxCell>
        <mxCell id="srSLmdjnSRIWFeMidiFF-182" style="edgeStyle=orthogonalEdgeStyle;rounded=0;orthogonalLoop=1;jettySize=auto;html=1;" edge="1" parent="1" source="srSLmdjnSRIWFeMidiFF-178" target="srSLmdjnSRIWFeMidiFF-157">
          <mxGeometry relative="1" as="geometry" />
        </mxCell>
        <mxCell id="srSLmdjnSRIWFeMidiFF-183" style="edgeStyle=orthogonalEdgeStyle;rounded=0;orthogonalLoop=1;jettySize=auto;html=1;entryX=0.5;entryY=0;entryDx=0;entryDy=0;" edge="1" parent="1" source="srSLmdjnSRIWFeMidiFF-179" target="srSLmdjnSRIWFeMidiFF-157">
          <mxGeometry relative="1" as="geometry" />
        </mxCell>
        <mxCell id="srSLmdjnSRIWFeMidiFF-185" style="edgeStyle=orthogonalEdgeStyle;rounded=0;orthogonalLoop=1;jettySize=auto;html=1;entryX=0.5;entryY=0;entryDx=0;entryDy=0;" edge="1" parent="1" source="srSLmdjnSRIWFeMidiFF-160" target="srSLmdjnSRIWFeMidiFF-140">
          <mxGeometry relative="1" as="geometry" />
        </mxCell>
        <mxCell id="srSLmdjnSRIWFeMidiFF-187" style="edgeStyle=orthogonalEdgeStyle;rounded=0;orthogonalLoop=1;jettySize=auto;html=1;entryX=0.527;entryY=0.966;entryDx=0;entryDy=0;entryPerimeter=0;" edge="1" parent="1" source="srSLmdjnSRIWFeMidiFF-186" target="srSLmdjnSRIWFeMidiFF-149">
          <mxGeometry relative="1" as="geometry" />
        </mxCell>
      </root>
    </mxGraphModel>
  </diagram>
</mxfile>
